<svg width="26" height="26" viewBox="0 0 26 26" fill="none" xmlns="http://www.w3.org/2000/svg">
<path d="M6.39016 25.0199H6.00016C3.63016 25.0199 1.45016 23.8499 0.160156 21.8799C1.77016 23.6899 3.99016 24.7999 6.39016 25.0199ZM16.7502 25.0199H12.9602V11.8999H9.17015V8.1499H12.9602V5.3399C12.9602 2.7599 15.0902 0.649902 17.7002 0.649902H22.4402V4.3999H17.7002C17.1802 4.3999 16.7502 4.8199 16.7502 5.3399V8.1499H21.9702L21.0202 11.8999H16.7502V25.0199ZM19.9102 25.0199H19.5002C21.9102 24.8099 24.1402 23.6999 25.7602 21.8799C24.4702 23.8499 22.2902 25.0199 19.9202 25.0199H19.9102Z" fill="white"/>
</svg>
