<svg width="70" height="76" viewBox="0 0 70 76" fill="none" xmlns="http://www.w3.org/2000/svg">
<g filter="url(#filter0_d_3_261)">
<path d="M17.4949 9.17676H62.8308V45.8765H13.1768V13.4948C13.1768 11.1111 15.1112 9.17676 17.4949 9.17676Z" fill="white"/>
<path d="M16.4135 48.5725H62.8308C64.3234 48.5725 65.5267 47.3616 65.5267 45.8766V4.85877C65.5267 2.17807 63.3486 0 60.6679 0H15.3321C9.08724 0 4 5.08724 4 11.3321V55.5865C4 62.433 9.56703 68 16.4135 68H62.8308C64.3234 68 65.5267 66.7891 65.5267 65.3041C65.5267 63.819 64.3158 62.6081 62.8308 62.6081H16.4135C12.5447 62.6081 9.39949 59.4629 9.39949 55.5941C9.39949 51.7254 12.5447 48.5801 16.4135 48.5801V48.5725ZM15.3321 5.39948H60.1272V43.173H16.4135C13.8089 43.173 11.3948 43.9803 9.39949 45.3587V11.3321C9.39949 8.05734 12.065 5.39187 15.3321 5.39187V5.39948Z" fill="white"/>
<path d="M62.8231 58.2901H16.4135C14.9208 58.2901 13.7175 57.0792 13.7175 55.5941C13.7175 54.1091 14.9284 52.8982 16.4135 52.8982H62.8231C64.3158 52.8982 65.5191 54.1091 65.5191 55.5941C65.5191 57.0792 64.3082 58.2901 62.8231 58.2901Z" fill="white"/>
<path d="M50.958 19.9683H55.2684C55.8657 19.9683 56.3499 19.4841 56.3499 18.8868V14.5764C56.3499 13.9791 55.8657 13.495 55.2684 13.495H50.958C50.3607 13.495 49.8766 13.9791 49.8766 14.5764V18.8868C49.8766 19.4841 50.3607 19.9683 50.958 19.9683Z" fill="#2B3252"/>
<path d="M40.1667 19.9683H44.4771C45.0744 19.9683 45.5585 19.4841 45.5585 18.8868V14.5764C45.5585 13.9791 45.0744 13.495 44.4771 13.495H40.1667C39.5694 13.495 39.0852 13.9791 39.0852 14.5764V18.8868C39.0852 19.4841 39.5694 19.9683 40.1667 19.9683Z" fill="#2B3252"/>
<path d="M29.3677 19.9683H33.6782C34.2754 19.9683 34.7596 19.4841 34.7596 18.8868V14.5764C34.7596 13.9791 34.2754 13.495 33.6782 13.495H29.3677C28.7705 13.495 28.2863 13.9791 28.2863 14.5764V18.8868C28.2863 19.4841 28.7705 19.9683 29.3677 19.9683Z" fill="#2B3252"/>
<path d="M18.5763 19.9683H22.8868C23.484 19.9683 23.9682 19.4841 23.9682 18.8868V14.5764C23.9682 13.9791 23.484 13.495 22.8868 13.495H18.5763C17.9791 13.495 17.4949 13.9791 17.4949 14.5764V18.8868C17.4949 19.4841 17.9791 19.9683 18.5763 19.9683Z" fill="#2B3252"/>
</g>
<defs>
<filter id="filter0_d_3_261" x="0" y="0" width="69.5267" height="76" filterUnits="userSpaceOnUse" color-interpolation-filters="sRGB">
<feFlood flood-opacity="0" result="BackgroundImageFix"/>
<feColorMatrix in="SourceAlpha" type="matrix" values="0 0 0 0 0 0 0 0 0 0 0 0 0 0 0 0 0 0 127 0" result="hardAlpha"/>
<feOffset dy="4"/>
<feGaussianBlur stdDeviation="2"/>
<feComposite in2="hardAlpha" operator="out"/>
<feColorMatrix type="matrix" values="0 0 0 0 0 0 0 0 0 0 0 0 0 0 0 0 0 0 0.25 0"/>
<feBlend mode="normal" in2="BackgroundImageFix" result="effect1_dropShadow_3_261"/>
<feBlend mode="normal" in="SourceGraphic" in2="effect1_dropShadow_3_261" result="shape"/>
</filter>
</defs>
</svg>
